<svg width="60" height="36" viewBox="0 0 60 36" fill="none" xmlns="http://www.w3.org/2000/svg">
<path d="M40.7299 25.8186C40.2688 25.0533 37.0222 26.6958 34.083 27.9651C35.2165 26.4345 32.9496 26.3785 32.2581 25.7812C31.1246 24.8293 32.0275 23.9147 32.0467 23.8587C32.2965 23.84 32.5462 23.8213 32.8152 23.784C34.0446 23.7093 37.1183 23.392 37.3872 23.392C37.8099 23.3734 38.1749 23.4854 38.3286 23.6534C38.2901 23.6534 38.098 23.6907 37.8483 23.7467C37.0222 23.9333 36.177 24.0827 36.2538 24.176C36.3307 24.2506 36.5228 24.344 36.7533 24.4C37.2336 24.5493 37.8867 24.6053 38.2517 24.3813C38.367 24.3253 38.463 24.232 38.5207 24.12L38.6551 23.8773C38.8664 23.6907 39.3275 23.5227 39.7693 23.6534C40.8451 24.0453 40.9796 24.9786 40.7299 25.8186ZM59.7482 22.8881H59.6905L59.5945 22.9254C57.174 23.9147 47.7801 26.2105 41.5367 25.3332C41.6712 24.2693 41.1525 23.392 40.1151 22.9814L40.0767 22.9627C39.6733 22.8321 39.2122 22.8694 38.8088 23.0187C38.5014 22.7761 38.0404 22.6081 37.5409 22.6081H37.4641C37.3488 22.6081 36.907 22.6641 36.0041 22.7387C34.9475 22.8507 33.6604 22.9627 32.9112 23.0187C32.6231 23.0374 32.3157 23.0747 31.9699 23.0934C31.2783 23.168 30.5099 23.2427 29.6646 23.2427C29.2804 23.2427 28.8962 23.224 28.5312 23.1867C15.1416 19.7336 5.45952 7.30237 2.48191 0.172154C2.48191 0.172154 2.40507 0.041496 2.30902 0.00416502C2.21297 0.00416502 2.11691 -0.0518314 2.02086 0.246817C0.234292 5.69714 1.48297 12.622 8.51399 18.651C8.62925 18.7443 8.74451 18.819 8.82135 18.875C5.15216 17.4004 1.88639 12.846 0.368764 9.5049C0.311133 9.37425 0.157451 9.29958 0.0998194 9.5609C-0.0154431 10.1395 -0.0154419 10.8675 0.0229789 11.4461V11.5394C0.119031 12.902 0.48403 14.9366 1.77113 16.6351C3.00059 18.203 4.65269 19.6776 6.82347 21.0029C6.93873 21.0588 7.03478 21.1148 7.13083 21.1522C5.17137 20.7042 3.15428 19.3976 1.48297 17.8111C1.36771 17.6991 1.17561 17.6991 1.31008 17.9977C5.78611 27.9651 17.6197 29.7383 21.8268 30.1303L13.5855 32.2395C13.5855 32.2395 13.355 32.3328 13.3934 32.5381C13.4126 32.7248 13.5663 33.0608 13.6816 33.3034C14.1042 34.162 15.8139 35.8979 20.8471 33.4527C19.8481 34.1807 18.5226 35.0206 17.831 35.4313C17.6389 35.5433 17.5237 35.6926 17.831 35.7486C19.1373 35.9912 23.2868 36.7565 27.7052 33.4527C29.876 31.8288 30.4907 31.6049 30.4907 31.6049C41.8825 31.8475 56.4824 28.4131 59.9403 23.2987L59.9595 23.2614L59.9787 23.2427L59.9979 23.1494C60.0171 23.0001 59.9019 22.8881 59.7482 22.8881Z" fill="#337BCC"/>
</svg>
