<svg width="48" height="35" viewBox="0 0 48 35" fill="none" xmlns="http://www.w3.org/2000/svg">
<path d="M2.42849 2.58241C2.55828 3.46443 5.22575 19.7078 17.8823 28.936C25.811 34.7703 32.3523 33.5304 37.1206 32.7248C39.7756 32.1608 42.0724 31.7536 43.4155 32.873C43.7468 33.2401 44.6109 33.4596 44.996 32.7791L45.3631 32.4478C45.5556 32.1075 45.5736 31.7583 45.5826 31.5837C45.4348 31.0509 45.0946 30.8583 45.0946 30.8583C43.5769 29.73 43.5009 27.8003 43.4607 25.1721C43.2639 22.1858 43.1119 18.3265 40.69 14.3506C39.3827 12.5328 37.7352 10.5225 35.0311 8.63297C22.3746 -0.59526 4.44781 0.760309 3.7404 0.899062L2.15993 0.992949L2.42849 2.58241ZM13.0438 3.82762C14.4407 3.89933 16.0033 4.15464 17.3912 4.40097C17.4851 5.98142 17.8565 8.97667 19.101 12.0168L17.4177 10.7048C14.9061 8.47503 13.6616 5.43497 13.0438 3.82762ZM39.1804 26.7031C34.3229 22.4271 34.001 15.0577 34.0236 11.2073C40.4167 16.2624 40.6806 21.3529 40.8236 25.3869C40.7788 26.26 40.9086 27.142 41.0384 28.024L39.1804 26.7031ZM10.8542 8.96732C9.11708 8.70306 7.54557 8.62242 6.67252 8.5776C6.22041 7.15383 5.92498 6.08824 5.62954 5.02265L10.8542 8.96732ZM15.7386 12.7195L17.4309 13.8569C13.9477 13.503 10.6032 13.8564 9.01378 14.1249C8.37809 12.8668 7.91702 11.6177 7.28133 10.3596C9.36769 10.6417 12.8509 10.9956 15.7386 12.7195ZM21.8184 17.0582L24.8538 19.3149C19.817 18.5311 14.6816 19.668 12.5594 20.0843C11.5745 18.8082 10.7731 17.3665 9.97181 15.9248C12.2597 15.6921 17.7174 15.097 21.8184 17.0582ZM29.5815 22.7089L32.4513 24.7821C26.7161 23.9624 21.0389 25.4217 18.3749 26.1602C16.8662 24.8573 15.3664 23.3797 13.8756 21.7275C17.0544 21.1904 24.2852 20.1611 29.5815 22.7089ZM31.077 20.8599C27.0836 16.8034 26.5602 9.94876 26.5379 6.97142C28.5974 7.77743 30.4733 8.74909 32.3402 9.89536C32.0311 12.5056 31.9279 17.9274 34.1214 22.942L31.077 20.8599ZM23.3139 15.2093C20.3233 12.0795 19.5266 7.13668 19.294 4.84882C21.0221 5.28768 22.7503 5.72657 24.2949 6.33108C24.1963 8.25179 24.2945 13.1588 26.3493 17.466L23.3139 15.2093ZM20.2239 27.6557C24.3027 26.6396 32.0752 25.2879 37.676 28.7267L39.5339 30.0476C38.6519 30.1774 37.7699 30.3072 36.7133 30.428C32.2942 31.2516 26.9932 32.2049 20.2239 27.6557ZM6.94145 3.3393C7.98911 3.39308 9.386 3.4648 10.9575 3.54548C11.2619 4.43646 11.5394 5.85122 12.3407 7.29293L6.94145 3.3393Z" fill="#337BCC"/>
</svg>
