<svg width="57" height="29" viewBox="0 0 57 29" fill="none" xmlns="http://www.w3.org/2000/svg">
<path d="M46.2074 13.1176C45.3013 12.7394 44.6973 12.2352 44.2443 11.6049C43.7913 10.9746 43.6403 10.2183 43.6403 9.2099V7.06693C43.6403 5.93242 43.9423 4.92394 44.3953 4.04155C44.8483 3.15916 45.6033 2.52887 46.5093 2.15071C47.4154 1.64648 48.6234 1.52043 49.9825 1.52043C51.3415 1.52043 52.3985 1.77254 53.3045 2.15071C54.2106 2.52887 54.9656 3.15919 55.4186 3.91552C55.8717 4.67186 56.1737 5.68029 56.1737 6.8148V7.06693H53.9086V6.8148C53.9086 6.05846 53.7576 5.42818 53.4556 4.92396C53.1535 4.41973 52.7005 4.04156 52.0965 3.6634C51.4925 3.41128 50.7375 3.28524 49.9825 3.28524C49.0764 3.28524 48.3214 3.41133 47.7174 3.7895C47.1134 4.16767 46.6604 4.5458 46.3584 5.17608C46.0564 5.80637 45.9053 6.43666 45.9053 7.31906V9.46203C45.9053 10.2184 46.0564 10.8486 46.3584 11.3529C46.6604 11.8571 47.1134 12.2352 47.5664 12.4873C48.1704 12.7394 48.7744 12.8655 49.5294 12.8655V13.7479C48.0194 13.6218 46.9624 13.4958 46.2074 13.1176ZM43.4893 12.7395H55.5696V14.5043H43.4893V12.7395ZM47.1134 0.0078125H49.0764V7.06693H47.1134V0.0078125ZM50.4355 0.0078125H52.3986V7.06693H50.4355V0.0078125Z" fill="#337BCC"/>
<path d="M9.59552 0.0078125H17.2178L9.86636 9.65795C11.0787 9.06279 12.2781 8.7652 13.4647 8.7652C15.7088 8.7652 17.6563 9.67212 19.3071 11.486C20.9322 13.2714 21.7447 15.5246 21.7447 18.2453C21.7447 21.2211 20.8548 23.6868 19.075 25.6423C17.0372 27.8813 14.2901 29.0007 10.8337 29.0007C7.22244 29.0007 4.39795 27.8529 2.36019 25.5573C0.786731 23.7718 0 21.5612 0 18.9255C0 15.5812 1.27683 12.0528 3.83047 8.34009L9.59552 0.0078125ZM7.66094 21.7312C8.51216 22.6948 9.53104 23.1766 10.7176 23.1766C11.9041 23.1766 12.8972 22.7374 13.6968 21.8588C14.4965 20.9802 14.8963 19.9032 14.8963 18.6279C14.8963 17.4943 14.4965 16.5023 13.6968 15.6521C12.8714 14.7735 11.8783 14.3342 10.7176 14.3342C9.60842 14.3342 8.64113 14.7452 7.81571 15.5671C6.96449 16.4173 6.53889 17.3951 6.53889 18.5004C6.53889 19.7757 6.9129 20.8527 7.66094 21.7312Z" fill="#337BCC"/>
<path d="M36.1237 3.78766C35.7986 3.48637 35.424 3.33573 35 3.33573C34.576 3.33573 34.2014 3.48637 33.8763 3.78766C33.5088 4.1033 33.212 4.63415 32.9859 5.3802C32.7597 6.11191 32.6466 6.82927 32.6466 7.53228C32.6466 8.17791 32.7527 8.88092 32.9647 9.64132C33.1908 10.3874 33.4947 10.9326 33.8763 11.2769C34.2014 11.5782 34.576 11.7288 35 11.7288C35.424 11.7288 35.7986 11.5782 36.1237 11.2769C36.4912 10.9469 36.788 10.4161 37.0141 9.68436C37.2403 8.93831 37.3534 8.22812 37.3534 7.5538C37.3534 6.87948 37.2332 6.16212 36.9929 5.40172C36.7668 4.64132 36.477 4.1033 36.1237 3.78766ZM41 7.51076C41 10.0215 40.3004 11.9727 38.9011 13.3644C37.8127 14.4548 36.5124 15 35 15C33.4876 15 32.1873 14.4548 31.0989 13.3644C29.6996 11.9727 29 10.0215 29 7.51076C29 4.98565 29.6996 3.02726 31.0989 1.63558C32.1873 0.545194 33.4876 0 35 0C36.5124 0 37.8127 0.545194 38.9011 1.63558C40.3004 3.02726 41 4.98565 41 7.51076Z" fill="#337BCC"/>
<path d="M27.5348 14.2897C27.1046 14.7199 26.5981 14.9349 26.0153 14.9349C25.4325 14.9349 24.926 14.7199 24.4958 14.2897C24.0657 13.8595 23.8506 13.353 23.8506 12.7702C23.8506 12.1874 24.0657 11.6809 24.4958 11.2507C24.926 10.8206 25.4325 10.6055 26.0153 10.6055C26.5981 10.6055 27.1116 10.8275 27.5556 11.2715C27.958 11.674 28.1593 12.1735 28.1593 12.7702C28.1593 13.3669 27.9511 13.8734 27.5348 14.2897Z" fill="#337BCC"/>
</svg>
