<svg width="175" height="196" viewBox="0 0 175 196" fill="none" xmlns="http://www.w3.org/2000/svg">
<path d="M152.056 146.81C163.613 145.393 172 141.466 172 136.766V122.667M115.317 122.667V132.114M152.056 161.503C163.613 160.087 172 156.16 172 151.46V137.361M152.056 175.149C163.613 173.733 172 169.806 172 165.106V151.007M82.7762 155.206V169.011C82.7762 174.747 95.4588 179.349 111.118 179.349C126.777 179.349 139.459 174.684 139.459 169.011V155.206M82.7762 168.848V182.653C82.7762 188.389 95.4588 192.991 111.118 192.991C126.777 192.991 139.459 188.326 139.459 182.653V168.848M113.217 29.849V20.2372C113.217 10.7535 105.469 3 95.8484 3H20.3687C10.8127 3 3 10.6895 3 20.2372V175.756C3 185.24 10.7481 192.993 20.3687 192.993H70.4732M62.8323 176.199H54.4348M68.0806 19.7936H48.1365M82.7762 135.261V43.9381H149.956V98.6805M134.211 101.735C130.409 96.0149 123.947 92.2231 116.597 92.2231C104.876 92.2231 95.3724 101.863 95.3724 113.752C95.3724 120.243 98.2236 126.092 102.722 130.012M138.41 86.9751V66.9654C132.179 66.9654 127.169 61.8482 127.169 55.4844H106.613C106.613 61.8482 101.603 66.9654 95.3724 66.9654V86.9751M172 122.665C172 128.462 159.311 133.162 143.658 133.162C128.006 133.162 115.317 128.462 115.317 122.665C115.317 116.868 128.006 112.168 143.658 112.168C159.311 112.168 172 116.868 172 122.665ZM139.459 155.204C139.459 161.002 126.771 165.701 111.118 165.701C95.4652 165.701 82.7762 161.002 82.7762 155.204C82.7762 149.407 95.4652 144.708 111.118 144.708C126.771 144.708 139.459 149.407 139.459 155.204Z" stroke="url(#paint0_linear_3068_2127)" stroke-width="6" stroke-miterlimit="10" stroke-linecap="round" stroke-linejoin="round"/>
<defs>
<linearGradient id="paint0_linear_3068_2127" x1="3" y1="97.9967" x2="172" y2="97.9967" gradientUnits="userSpaceOnUse">
<stop offset="0.2" stop-color="#C20A41"/>
<stop offset="0.490838" stop-color="#91459F"/>
<stop offset="0.8" stop-color="#025EBF"/>
</linearGradient>
</defs>
</svg>
