<svg width="206" height="206" viewBox="0 0 206 206" fill="none" xmlns="http://www.w3.org/2000/svg">
<path d="M114.497 19.3643L121.698 9L124.386 21.3309C126.464 30.8671 137.416 35.4042 145.63 30.131L156.249 23.311L154.012 35.7301C152.283 45.3353 160.665 53.7195 170.27 51.9886L182.691 49.7516L175.871 60.3708C170.598 68.5825 175.135 79.5371 184.669 81.615L197 84.3024L186.636 91.5039C178.62 97.0722 178.62 108.928 186.636 114.498L197 121.7L184.669 124.387C175.133 126.465 170.596 137.417 175.871 145.631L182.691 156.25L170.27 154.013C160.665 152.284 152.281 160.667 154.012 170.272L156.249 182.691L145.63 175.871C137.418 170.598 126.464 175.133 124.386 184.669L121.698 197L114.497 186.636C108.929 178.62 97.0732 178.62 91.503 186.636L84.3016 197L81.6142 184.669C79.5364 175.133 68.5838 170.596 60.3703 175.871L49.7512 182.691L51.9881 170.272C53.7171 160.667 45.3349 152.282 35.7298 154.013L23.3109 156.25L30.1309 145.631C35.404 137.419 30.8669 126.465 21.3308 124.387L9 121.7L19.3642 114.498C27.3802 108.93 27.3802 97.0741 19.3642 91.5039L9 84.3024L21.3308 81.615C30.8669 79.5371 35.404 68.5844 30.1309 60.3708L23.3109 49.7516L35.7298 51.9886C45.3349 53.7175 53.719 45.3353 51.9881 35.7301L49.7512 23.311L60.3703 30.131C68.5819 35.4042 79.5364 30.8671 81.6142 21.3309L84.3016 9L91.503 19.3643C97.0732 27.3785 108.929 27.3785 114.497 19.3643Z" stroke="url(#paint0_linear_3074_2031)" stroke-width="7"/>
<path d="M102.906 139.091C106.61 139.091 109.612 136.092 109.612 132.393C109.612 128.694 106.61 125.695 102.906 125.695C99.2032 125.695 96.2012 128.694 96.2012 132.393C96.2012 136.092 99.2032 139.091 102.906 139.091Z" fill="#93429B"/>
<path d="M108 67H98V115H108V67Z" fill="#93429B"/>
<defs>
<linearGradient id="paint0_linear_3074_2031" x1="9" y1="103" x2="197" y2="103" gradientUnits="userSpaceOnUse">
<stop offset="0.2" stop-color="#C20A41"/>
<stop offset="0.490838" stop-color="#91459F"/>
<stop offset="0.8" stop-color="#025EBF"/>
</linearGradient>
</defs>
</svg>
